<svg width="38" height="38" viewBox="0 0 38 38" fill="none" xmlns="http://www.w3.org/2000/svg">
<rect opacity="0.1" width="38" height="38" rx="6" fill="#031A6E"/>
<path d="M25.2297 19.4828C24.9906 19.2484 24.9859 18.8594 25.225 18.6203L27.4375 16.375H16.8906C16.5531 16.375 16.2812 16.1031 16.2812 15.7656C16.2812 15.4281 16.5531 15.1563 16.8906 15.1563H27.4328L25.2203 12.9109C24.9859 12.6719 24.9859 12.2875 25.225 12.0484C25.4641 11.8141 25.8484 11.8141 26.0875 12.0531L29.3219 15.3344C29.3734 15.3906 29.4203 15.4516 29.4484 15.5266C29.4812 15.6016 29.4953 15.6813 29.4953 15.7609C29.4953 15.9203 29.4344 16.0703 29.3219 16.1875L26.0875 19.4688C25.8531 19.7125 25.4688 19.7172 25.2297 19.4828Z" fill="#031A6E"/>
<path d="M12.7705 25.9516C13.0096 25.7172 13.0143 25.3281 12.7752 25.0891L10.5674 22.8437H21.1096C21.4471 22.8437 21.7189 22.5719 21.7189 22.2344C21.7189 21.8969 21.4471 21.625 21.1096 21.625H10.5674L12.7799 19.3797C13.0143 19.1406 13.0143 18.7562 12.7752 18.5172C12.5361 18.2828 12.1518 18.2828 11.9127 18.5219L8.67832 21.8031C8.62676 21.8594 8.57988 21.9203 8.55176 21.9953C8.51895 22.0703 8.50488 22.15 8.50488 22.2297C8.50488 22.3891 8.56582 22.5391 8.67832 22.6562L11.9127 25.9375C12.1471 26.1812 12.5314 26.1859 12.7705 25.9516Z" fill="#031A6E"/>
</svg>
