<svg width="38" height="38" viewBox="0 0 38 38" fill="none" xmlns="http://www.w3.org/2000/svg">
<rect opacity="0.1" width="38" height="38" rx="6" fill="#031A6E"/>
<path d="M25.9375 14.5H12.0625C10.5109 14.5 9.25 15.7609 9.25 17.3125V25.1875C9.25 26.7391 10.5109 28 12.0625 28H25.9375C27.4891 28 28.75 26.7391 28.75 25.1875V17.3125C28.75 15.7609 27.4891 14.5 25.9375 14.5Z" fill="#031A6E"/>
<path d="M23.0734 10.0469L12.0625 12.1984C11.2188 12.3859 10 13.2344 10 14.2656C10 14.2656 10.7031 13.375 12.2969 13.375H25.75V12.4141C25.75 11.8234 25.5156 11.0688 25.0984 10.6516C24.5688 10.1219 23.8094 9.89219 23.0734 10.0469Z" fill="#031A6E"/>
</svg>
